#!OML:ASF E:\Style4\Style4.ASF
:FULLY-SPECIFIED
:DEGREES
2324
root -0.405228 18.172 -1.52429 1.59271 -1.2865 1.35464
lowerback 1.929 5.87893 -0.956034
upperback 1.12266 7.83477 -4.47571
thorax 0.583238 3.94289 -4.15261
lowerneck 4.13002 -4.75488 -5.90284
upperneck 0.90592 -6.60065 9.37171
head 0.120641 -3.38378 4.16814
rclavicle -6.54002e-014 1.03368e-014
rhumerus 36.8235 0.67235 -10.7127
rradius 99.6951
rwrist -39.6769
rhand -22.1228 27.7821
rfingers 7.12502
rthumb 4.29021 -2.15448
lclavicle -6.54002e-014 1.03368e-014
lhumerus -52.7038 -33.5243 93.8007
lradius 102.334
lwrist 19.0251
lhand -10.9541 26.4767
lfingers 7.12502
lthumb 15.0647 55.9085
rfemur -5.36044 5.23278 18.1675
rtibia 17.6707
rfoot -13.0192 -15.4717
rtoes -8.21256
lfemur 0.187324 -3.9788 -20.8359
ltibia 11.6229
lfoot -14.9028 17.0514
ltoes -12.5135
2325
root -0.408282 18.1708 -1.51648 1.55803 -1.1402 1.35595
lowerback 1.89964 5.90874 -0.944087
upperback 1.1158 7.87612 -4.50332
thorax 0.600862 3.96417 -4.18449
lowerneck 4.32986 -4.73636 -5.84821
upperneck 0.80494 -6.57403 9.37466
head 0.048352 -3.37589 4.1676
rclavicle 2.65378e-014 1.43125e-014
rhumerus 37.0203 0.136007 -10.6865
rradius 100.356
rwrist -39.6949
rhand -22.2816 27.8298
rfingers 7.12502
rthumb 4.13686 -2.10976
lclavicle 2.65378e-014 1.43125e-014
lhumerus -52.481 -33.5092 93.6629
lradius 102.402
lwrist 18.9707
lhand -10.8533 26.4223
lfingers 7.12502
lthumb 15.1618 55.8468
rfemur -5.25268 5.16056 18.1835
rtibia 17.6342
rfoot -13.0677 -15.5091
rtoes -7.95342
lfemur 0.167621 -4.03988 -20.8225
ltibia 11.7467
lfoot -14.8943 16.9218
ltoes -12.3092
2326
root -0.41064 18.169 -1.50748 1.50523 -0.988506 1.32362
lowerback 1.87259 5.91537 -0.895105
upperback 1.13039 7.88797 -4.51633
thorax 0.640251 3.97119 -4.2202
lowerneck 4.35908 -4.72781 -5.79532
upperneck 0.868252 -6.56449 9.30324
head 0.0582684 -3.37034 4.13187
rclavicle 1.63997e-014 -1.35174e-014
rhumerus 37.222 -0.439804 -10.6097
rradius 101.052
rwrist -39.776
rhand -22.3468 27.9436
rfingers 7.12502
rthumb 4.07392 -1.99717
lclavicle 1.63997e-014 -1.35174e-014
lhumerus -52.2709 -33.5086 93.5543
lradius 102.475
lwrist 19.1503
lhand -10.8434 26.3172
lfingers 7.12502
lthumb 15.1713 55.7411
rfemur -5.11221 5.11817 18.2445
rtibia 17.5989
rfoot -13.075 -15.6245
rtoes -8.03636
lfemur 0.171467 -3.99654 -20.7674
ltibia 11.8644
lfoot -14.9 16.7462
ltoes -12.3547
2327
root -0.413026 18.1669 -1.49953 1.44061 -0.803007 1.22641
lowerback 1.89013 5.91725 -0.760459
upperback 1.13516 7.89284 -4.50785
thorax 0.652699 3.97518 -4.28615
lowerneck 4.38344 -4.71223 -5.82539
upperneck 0.98461 -6.55271 9.28099
head 0.0907332 -3.36361 4.1286
rclavicle 4.16454e-014 -2.70347e-014
rhumerus 37.3514 -1.0484 -10.5109
rradius 101.789
rwrist -39.8653
rhand -22.231 28.0192
rfingers 7.12502
rthumb 4.18572 -1.91939
lclavicle 4.16454e-014 -2.70347e-014
lhumerus -52.1285 -33.5787 93.4902
lradius 102.541
lwrist 19.325
lhand -11.1924 25.8606
lfingers 7.12502
lthumb 14.8351 55.3095
rfemur -4.95079 5.03528 18.3813
rtibia 17.5735
rfoot -13.1299 -15.7115
rtoes -8.01738
lfemur 0.191654 -3.98462 -20.6347
ltibia 11.9779
lfoot -14.8955 16.5255
ltoes -12.3047
2328
root -0.414941 18.1655 -1.49227 1.37575 -0.655629 1.1954
lowerback 1.92084 5.95071 -0.672
upperback 1.13651 7.93879 -4.53778
thorax 0.656637 3.99968 -4.36825
lowerneck 4.49035 -4.72306 -5.79847
upperneck 1.00728 -6.57084 9.27408
head 0.0794028 -3.37462 4.1242
rclavicle 3.39922e-014 -6.36111e-015
rhumerus 37.4595 -1.65963 -10.4882
rradius 102.335
rwrist -39.8385
rhand -21.9606 28.32
rfingers 7.12502
rthumb 4.44681 -1.6133
lclavicle 3.39922e-014 -6.36111e-015
lhumerus -51.9703 -33.6495 93.3739
lradius 102.645
lwrist 19.4147
lhand -11.961 25.1401
lfingers 7.12502
lthumb 14.0945 54.6421
rfemur -4.82433 5.01565 18.4398
rtibia 17.571
rfoot -13.2036 -15.8334
rtoes -8.02194
lfemur 0.214619 -4.07645 -20.5958
ltibia 12.0803
lfoot -14.9727 16.557
ltoes -12.6945
2329
root -0.415508 18.1621 -1.48371 1.29516 -0.543342 1.22687
lowerback 1.92786 5.9836 -0.63621
upperback 1.159 7.98493 -4.58354
thorax 0.690889 4.02433 -4.43382
lowerneck 4.69474 -4.7346 -5.72764
upperneck 0.889505 -6.58242 9.22682
head 0.00183782 -3.38561 4.10316
rclavicle -4.25399e-014 1.90833e-014
rhumerus 37.6051 -2.15817 -10.4869
rradius 102.797
rwrist -39.8686
rhand -21.7319 28.6986
rfingers 7.12502
rthumb 4.66768 -1.23
lclavicle -4.25399e-014 1.90833e-014
lhumerus -51.7776 -33.5875 93.2127
lradius 102.712
lwrist 19.4305
lhand -12.2152 24.7216
lfingers 7.12502
lthumb 13.8496 54.2405
rfemur -4.69832 4.93017 18.4079
rtibia 17.5752
rfoot -13.231 -15.8613
rtoes -7.84805
lfemur 0.252536 -4.17652 -20.6421
ltibia 12.1993
lfoot -15.0981 16.5801
ltoes -12.9405
2330
root -0.416921 18.1594 -1.47609 1.24394 -0.405835 1.25785
lowerback 1.88827 5.98377 -0.644506
upperback 1.19507 7.98847 -4.60621
thorax 0.752591 4.02714 -4.4454
lowerneck 4.80017 -4.75018 -5.64591
upperneck 0.869983 -6.60117 9.21429
head -0.0249179 -3.39714 4.08702
rclavicle -6.94752e-014 5.08889e-014
rhumerus 37.7956 -2.62201 -10.4009
rradius 103.399
rwrist -40.161
rhand -21.6731 28.7593
rfingers 7.12502
rthumb 4.72447 -1.16805
lclavicle -6.94752e-014 5.08889e-014
lhumerus -51.514 -33.4815 93.0514
lradius 102.737
lwrist 19.4259
lhand -11.9389 24.9698
lfingers 7.12502
lthumb 14.1159 54.4704
rfemur -4.61314 4.80898 18.3863
rtibia 17.6013
rfoot -13.2687 -15.906
rtoes -8.18549
lfemur 0.252862 -4.19669 -20.6681
ltibia 12.3125
lfoot -15.214 16.4375
ltoes -12.8575
2331
root -0.42009 18.1589 -1.46993 1.20875 -0.275623 1.22535
lowerback 1.87779 5.999 -0.61499
upperback 1.20611 8.01048 -4.61142
thorax 0.77627 4.03892 -4.46468
lowerneck 4.8987 -4.83102 -5.58637
upperneck 0.885462 -6.71061 9.30677
head -0.0268735 -3.45447 4.11128
rclavicle -5.30755e-014 5.24792e-014
rhumerus 37.9445 -3.06171 -10.333
rradius 104.055
rwrist -40.5166
rhand -21.6946 28.7809
rfingers 7.12502
rthumb 4.70369 -1.14688
lclavicle -5.30755e-014 5.24792e-014
lhumerus -51.3315 -33.4721 92.9408
lradius 102.76
lwrist 19.3639
lhand -11.7656 25.2826
lfingers 7.12502
lthumb 14.2829 54.7714
rfemur -4.53788 4.76447 18.45
rtibia 17.6299
rfoot -13.3538 -15.9741
rtoes -8.12913
lfemur 0.21995 -4.16686 -20.6113
ltibia 12.4482
lfoot -15.2175 16.2956
ltoes -13.1722
